<mxfile host="Electron" agent="Mozilla/5.0 (Windows NT 10.0; Win64; x64) AppleWebKit/537.36 (KHTML, like Gecko) draw.io/24.7.5 Chrome/126.0.6478.183 Electron/31.3.0 Safari/537.36" version="24.7.5">
  <diagram name="Page-1" id="I1JmYus51bPRpTJSfx-f">
    <mxGraphModel dx="792" dy="1195" grid="1" gridSize="10" guides="1" tooltips="1" connect="1" arrows="1" fold="1" page="1" pageScale="1" pageWidth="850" pageHeight="1100" math="0" shadow="0">
      <root>
        <mxCell id="0" />
        <mxCell id="1" parent="0" />
        <mxCell id="sDq0VXqV6MLcIJx__lWi-1" value="Database" style="shape=datastore;whiteSpace=wrap;html=1;" vertex="1" parent="1">
          <mxGeometry x="520" y="290" width="70" height="80" as="geometry" />
        </mxCell>
        <mxCell id="sDq0VXqV6MLcIJx__lWi-2" value="User Interface" style="html=1;dashed=0;whiteSpace=wrap;shape=mxgraph.dfd.start;fillColor=#fa6800;fontColor=#000000;strokeColor=#C73500;fontStyle=1" vertex="1" parent="1">
          <mxGeometry x="305" y="260" width="110" height="40" as="geometry" />
        </mxCell>
        <mxCell id="sDq0VXqV6MLcIJx__lWi-3" value="Business Layer" style="html=1;dashed=0;whiteSpace=wrap;shape=mxgraph.dfd.start;fontStyle=1;fillColor=#f0a30a;fontColor=#000000;strokeColor=#BD7000;" vertex="1" parent="1">
          <mxGeometry x="305" y="310" width="110" height="40" as="geometry" />
        </mxCell>
        <mxCell id="sDq0VXqV6MLcIJx__lWi-4" value="Data Interface" style="html=1;dashed=0;whiteSpace=wrap;shape=mxgraph.dfd.start;fontStyle=1;fillColor=#e3c800;fontColor=#000000;strokeColor=#B09500;" vertex="1" parent="1">
          <mxGeometry x="305" y="360" width="110" height="40" as="geometry" />
        </mxCell>
        <mxCell id="sDq0VXqV6MLcIJx__lWi-6" value="" style="rounded=1;whiteSpace=wrap;html=1;strokeWidth=3;perimeterSpacing=0;dashed=1;fillColor=none;" vertex="1" parent="1">
          <mxGeometry x="290" y="240" width="140" height="180" as="geometry" />
        </mxCell>
        <mxCell id="sDq0VXqV6MLcIJx__lWi-7" value="" style="endArrow=classic;html=1;rounded=0;" edge="1" parent="1">
          <mxGeometry width="50" height="50" relative="1" as="geometry">
            <mxPoint x="460" y="320" as="sourcePoint" />
            <mxPoint x="500" y="320" as="targetPoint" />
          </mxGeometry>
        </mxCell>
        <mxCell id="sDq0VXqV6MLcIJx__lWi-8" value="" style="endArrow=classic;html=1;rounded=0;" edge="1" parent="1">
          <mxGeometry width="50" height="50" relative="1" as="geometry">
            <mxPoint x="500.5" y="340" as="sourcePoint" />
            <mxPoint x="460" y="340" as="targetPoint" />
          </mxGeometry>
        </mxCell>
        <mxCell id="sDq0VXqV6MLcIJx__lWi-9" value="&lt;font style=&quot;font-size: 17px;&quot;&gt;&lt;b&gt;Monolithic&lt;/b&gt;&lt;/font&gt;&lt;div&gt;&lt;font style=&quot;font-size: 17px;&quot;&gt;&lt;b&gt;Architecture&lt;/b&gt;&lt;/font&gt;&lt;/div&gt;" style="text;html=1;align=center;verticalAlign=middle;resizable=0;points=[];autosize=1;strokeColor=none;fillColor=none;" vertex="1" parent="1">
          <mxGeometry x="140" y="305" width="120" height="50" as="geometry" />
        </mxCell>
        <mxCell id="sDq0VXqV6MLcIJx__lWi-10" value="&lt;font style=&quot;font-size: 13px;&quot;&gt;Single Server&lt;/font&gt;" style="text;html=1;align=center;verticalAlign=middle;resizable=0;points=[];autosize=1;strokeColor=none;fillColor=none;rotation=0;" vertex="1" parent="1">
          <mxGeometry x="315" y="420" width="100" height="30" as="geometry" />
        </mxCell>
        <mxCell id="sDq0VXqV6MLcIJx__lWi-11" value="" style="rounded=0;whiteSpace=wrap;html=1;opacity=0;rotation=-90;" vertex="1" parent="1">
          <mxGeometry x="250" y="100" width="240" height="480" as="geometry" />
        </mxCell>
      </root>
    </mxGraphModel>
  </diagram>
</mxfile>
